<?xml version="1.0" encoding="UTF-8" standalone="no"?>
<!-- Created with Inkscape (http://www.inkscape.org/) -->

<svg
   width="56"
   height="56"
   viewBox="0 0 14.816666 14.816667"
   version="1.1"
   id="svg8"
   inkscape:version="1.1.2 (0a00cf5339, 2022-02-04)"
   sodipodi:docname="icon-56-56-new.svg"
   inkscape:export-filename="/home/strukturart/Schreibtisch/icon-112-112.png"
   inkscape:export-xdpi="96"
   inkscape:export-ydpi="96"
   xmlns:inkscape="http://www.inkscape.org/namespaces/inkscape"
   xmlns:sodipodi="http://sodipodi.sourceforge.net/DTD/sodipodi-0.dtd"
   xmlns="http://www.w3.org/2000/svg"
   xmlns:svg="http://www.w3.org/2000/svg"
   xmlns:rdf="http://www.w3.org/1999/02/22-rdf-syntax-ns#"
   xmlns:cc="http://creativecommons.org/ns#"
   xmlns:dc="http://purl.org/dc/elements/1.1/">
  <defs
     id="defs2" />
  <sodipodi:namedview
     id="base"
     pagecolor="#ffffff"
     bordercolor="#666666"
     borderopacity="1.0"
     inkscape:pageopacity="0.0"
     inkscape:pageshadow="2"
     inkscape:zoom="8.6481213"
     inkscape:cx="10.349069"
     inkscape:cy="22.25917"
     inkscape:document-units="mm"
     inkscape:current-layer="layer1"
     showgrid="false"
     units="px"
     showguides="false"
     inkscape:window-width="1920"
     inkscape:window-height="1016"
     inkscape:window-x="0"
     inkscape:window-y="0"
     inkscape:window-maximized="1"
     inkscape:lockguides="true"
     inkscape:pagecheckerboard="0" />
  <metadata
     id="metadata5">
    <rdf:RDF>
      <cc:Work
         rdf:about="">
        <dc:format>image/svg+xml</dc:format>
        <dc:type
           rdf:resource="http://purl.org/dc/dcmitype/StillImage" />
      </cc:Work>
    </rdf:RDF>
  </metadata>
  <g
     inkscape:label="Ebene 1"
     inkscape:groupmode="layer"
     id="layer1"
     transform="translate(0,-282.18332)">
    <g
       id="g1052"
       transform="translate(0.10376063,3.1750001)" />
    <circle
       style="fill:#77ffa4;stroke-width:0.277854"
       id="path1257"
       cx="8.8934174"
       cy="286.76416"
       r="4" />
    <path
       style="fill:#ffffff;fill-opacity:1;stroke-width:0.0352649"
       d="m 4.002204,295.24386 c -0.1355664,-0.05 -0.1510439,-0.13954 -0.1510439,-0.87231 v -0.70383 l -0.7215605,0.008 c -0.6949136,0.008 -0.7243785,0.004 -0.7978698,-0.0709 -0.04197,-0.0417 -0.076309,-0.11429 -0.076309,-0.1612 0,-0.10286 1.1445361,-3.47657 1.247494,-3.67723 0.039808,-0.0777 0.1344501,-0.21535 0.210313,-0.3061 l 0.1379327,-0.16501 5.979e-4,-0.45215 c 7.156e-4,-0.53549 0.059517,-0.84922 0.2233376,-1.19168 0.312485,-0.6532 0.8667685,-1.11502 1.5745632,-1.31197 0.2057826,-0.0572 0.395105,-0.064 1.8514107,-0.0642 1.6154921,-3.1e-4 1.6230257,7e-5 1.8248452,0.0815 0.2827234,0.11419 0.561521,0.3791 0.7045659,0.66941 l 0.115461,0.23438 0.01128,0.72569 c 0.01058,0.68006 0.007,0.73111 -0.05857,0.81201 l -0.06984,0.0864 -0.9905773,0.0103 -0.9905807,0.0104 v 1.28081 c 0,0.71835 -0.015721,1.36415 -0.0358,1.47071 -0.047844,0.25386 -0.2436566,0.65913 -0.4044993,0.83717 l -0.1304472,0.14437 1.8008107,0.01 c 1.7900638,0.01 1.8012608,0.0103 1.8767048,0.0857 0.09704,0.0971 0.09703,0.24482 -8e-6,0.34189 l -0.07591,0.0759 -2.3045065,0.01 -2.3045074,0.01 -0.015518,0.29563 c -0.012701,0.24206 -0.036028,0.33731 -0.1286617,0.52546 -0.1980405,0.40229 -0.651056,0.72904 -1.0106892,0.72904 -0.096418,0 -0.164267,0.039 -0.3364664,0.19248 -0.2941859,0.26248 -0.7482404,0.4176 -0.9759964,0.33331 z"
       id="path1094-7" />
    <path
       style="fill:#003333;fill-opacity:1;stroke-width:0.0352649"
       d="m 4.002204,295.24386 c -0.1355664,-0.05 -0.1510439,-0.13954 -0.1510439,-0.87231 v -0.70383 l -0.7215605,0.008 c -0.6949136,0.008 -0.7243785,0.004 -0.7978698,-0.0709 -0.04197,-0.0417 -0.076309,-0.11429 -0.076309,-0.1612 0,-0.10286 1.1445361,-3.47657 1.247494,-3.67723 0.039808,-0.0777 0.1344501,-0.21535 0.210313,-0.3061 l 0.1379327,-0.16501 5.979e-4,-0.45215 c 7.156e-4,-0.53549 0.059517,-0.84922 0.2233376,-1.19168 0.312485,-0.6532 0.8667685,-1.11502 1.5745632,-1.31197 0.2057826,-0.0572 0.395105,-0.064 1.8514107,-0.0642 1.6154921,-3.1e-4 1.6230257,7e-5 1.8248452,0.0815 0.2827234,0.11419 0.561521,0.3791 0.7045663,0.66941 l 0.115461,0.23438 0.01128,0.72569 c 0.01058,0.68006 0.007,0.73111 -0.05857,0.81201 l -0.06984,0.0864 -0.9905777,0.0103 -0.9905807,0.0104 v 1.28081 c 0,0.71835 -0.015721,1.36415 -0.0358,1.47071 -0.047844,0.25386 -0.2436566,0.65913 -0.4044993,0.83717 l -0.1304472,0.14437 1.8008107,0.01 c 1.7900642,0.01 1.8012612,0.0103 1.8767052,0.0857 0.09704,0.0971 0.09703,0.24482 -8e-6,0.34189 l -0.07591,0.0759 -2.3045069,0.01 -2.3045074,0.01 -0.015518,0.29563 c -0.012701,0.24206 -0.036028,0.33731 -0.1286617,0.52546 -0.1980405,0.40229 -0.651056,0.72904 -1.0106892,0.72904 -0.096418,0 -0.164267,0.039 -0.3364664,0.19248 -0.2941859,0.26248 -0.7482404,0.4176 -0.9759964,0.33331 z m 0.4819371,-0.57776 c 0.1425353,-0.0736 0.3359165,-0.31138 0.3840407,-0.47199 0.022512,-0.0752 0.040926,-0.31194 0.040926,-0.52626 v -0.38969 l -0.2821196,0.12819 -0.2821196,0.12814 v 0.59179 c 0,0.3255 0.00872,0.5918 0.019385,0.5918 0.01066,0 0.06461,-0.0234 0.1198879,-0.0522 z m 1.0579492,-0.52897 c 0.1425353,-0.0736 0.3359164,-0.31138 0.3840404,-0.47199 0.02251,-0.0753 0.040926,-0.21809 0.040926,-0.31768 v -0.18103 H 5.6849382 5.4028185 v 0.51134 c 0,0.28125 0.00872,0.51135 0.019386,0.51135 0.010658,0 0.06461,-0.0234 0.1198879,-0.0521 z m -1.5365841,-1.04011 c 1.086081,-0.27779 1.8618584,-1.21764 1.950153,-2.36262 0.05658,-0.73371 -0.4094567,-1.30536 -1.0641826,-1.30536 -0.3862209,0 -0.7342476,0.1925 -0.9140572,0.50556 -0.084247,0.14666 -1.0260879,2.87274 -1.0011386,2.89767 0.023691,0.0236 0.7553483,-0.4191 0.9755774,-0.59043 0.5300439,-0.4123 0.8823244,-1.09937 0.9452275,-1.84352 0.027096,-0.32056 0.087204,-0.4175 0.2588781,-0.4175 0.08084,0 0.1381487,0.0259 0.186194,0.0852 0.060875,0.0749 0.066916,0.12097 0.049148,0.37581 -0.028066,0.4024 -0.1101175,0.71028 -0.2938022,1.10239 -0.2875581,0.61385 -0.6399053,0.99522 -1.2875583,1.39363 -0.1809862,0.11134 -0.3356781,0.2083 -0.3437597,0.21549 -0.044894,0.0401 0.3063888,0.005 0.5393218,-0.0563 z M 6.784414,292.5215 c 0.2611797,-0.12826 0.5606452,-0.45044 0.6695981,-0.72037 0.081482,-0.20186 0.082446,-0.2207 0.092796,-1.81345 l 0.010458,-1.60949 -0.6452285,-0.0168 c -0.7135494,-0.0193 -0.8191561,-0.042 -1.0739179,-0.23471 -0.3040443,-0.22978 -0.4813013,-0.74152 -0.3687168,-1.06449 0.021738,-0.0621 0.032595,-0.12033 0.024119,-0.1288 -0.03655,-0.0369 -0.4039002,0.20149 -0.5857185,0.37951 -0.3684771,0.3608 -0.5230006,0.72868 -0.5534771,1.31766 l -0.019825,0.38308 0.079376,-0.0253 c 0.1777671,-0.0563 0.4905424,-0.0781 0.7006894,-0.049 0.3185473,0.0443 0.5873227,0.18377 0.8391164,0.43471 0.3824104,0.38112 0.5296564,0.78989 0.4959802,1.37689 -0.034431,0.6002 -0.2664039,1.23241 -0.6256575,1.70512 l -0.1434305,0.18873 0.4518097,-0.0124 c 0.4092186,-0.0112 0.4706838,-0.0218 0.6520286,-0.11074 z m 2.2506949,-4.41558 -0.2627227,-0.26451 H 8.410039 8.0476905 v 0.26451 0.26449 H 8.672761 9.2978314 Z m 0.597246,-0.74792 c -0.053263,-0.19114 -0.2544824,-0.42531 -0.4365858,-0.50801 -0.1171915,-0.0529 -0.2338017,-0.065 -0.6455534,-0.0659 l -0.5025252,-5.5e-4 v 0.26169 0.26169 l 0.4583179,0.0116 0.4583194,0.0117 0.3439588,0.34428 0.3439596,0.34426 0.010713,-0.2561 c 0.00601,-0.14084 -0.00788,-0.32291 -0.030632,-0.40452 z m -2.0783737,-0.0459 v -0.52893 l -0.625953,1.2e-4 c -0.5654963,1.4e-4 -0.6372203,0.009 -0.7426148,0.0711 -0.1241363,0.0755 -0.2520716,0.3079 -0.2520716,0.45758 0,0.14964 0.1279353,0.38188 0.2520716,0.45757 0.1053945,0.0643 0.1771185,0.0709 0.7426148,0.0711 l 0.625953,1.6e-4 z m -0.9812717,0.16522 c -0.099476,-0.10587 -0.097512,-0.23915 0.00495,-0.3354 0.1058869,-0.0995 0.2391635,-0.0975 0.3354139,0.008 0.099475,0.1059 0.097512,0.23919 -0.00494,0.33544 -0.1058871,0.0995 -0.239163,0.0975 -0.3354135,-0.008 z"
       id="path1094" />
  </g>
</svg>
